<?xml version="1.0" encoding="UTF-8" standalone="no"?>
<svg
   svg:contrastcolor="EF3340"
   svg:template="Contrast"
   svg:presentation="2.5"
   svg:layouttype="undefined"
   svg:specialfontid="undefined"
   svg:id1="484"
   svg:id2="281"
   svg:companyname="jero kit"
   svg:companytagline="smooth compose coding"
   version="1.1"
   viewBox="0 0 416.49615 106.29201"
   id="svg1935"
   sodipodi:docname="jerokit_logo.svg"
   width="416.49615"
   height="106.29201"
   inkscape:version="1.2.1 (9c6d41e, 2022-07-14)"
   xmlns:inkscape="http://www.inkscape.org/namespaces/inkscape"
   xmlns:sodipodi="http://sodipodi.sourceforge.net/DTD/sodipodi-0.dtd"
   xmlns="http://www.w3.org/2000/svg"
   xmlns:svg="http://www.w3.org/2000/svg">
  <defs
     id="defs1939" />
  <sodipodi:namedview
     id="namedview1937"
     pagecolor="#ffffff"
     bordercolor="#000000"
     borderopacity="0.25"
     inkscape:showpageshadow="2"
     inkscape:pageopacity="0.0"
     inkscape:pagecheckerboard="0"
     inkscape:deskcolor="#d1d1d1"
     showgrid="false"
     inkscape:zoom="1.6854545"
     inkscape:cx="207.95577"
     inkscape:cy="52.804746"
     inkscape:window-width="1920"
     inkscape:window-height="1080"
     inkscape:window-x="0"
     inkscape:window-y="0"
     inkscape:window-maximized="0"
     inkscape:current-layer="svg1935" />
  <g
     fill="#101820"
     fill-rule="none"
     stroke="none"
     stroke-width="1"
     stroke-linecap="butt"
     stroke-linejoin="miter"
     stroke-miterlimit="10"
     stroke-dasharray="none"
     stroke-dashoffset="0"
     font-family="none"
     font-weight="none"
     font-size="none"
     text-anchor="none"
     style="mix-blend-mode:normal;fill:#ff0057;fill-opacity:1"
     id="g1933"
     transform="translate(-66.75193,-181.854)">
    <g
       data-paper-data="{&quot;isGlobalGroup&quot;:true,&quot;bounds&quot;:{&quot;x&quot;:66.75192433363834,&quot;y&quot;:181.8540137132976,&quot;width&quot;:416.4961513327234,&quot;height&quot;:106.29197257340479}}"
       id="g1931"
       style="fill:#ff0057;fill-opacity:1">
      <g
         data-paper-data="{&quot;isSecondaryText&quot;:true}"
         fill-rule="nonzero"
         id="g1909"
         style="fill:#ff0057;fill-opacity:1">
        <path
           d="m 66.75295,285.52683 c 0,1.41576 1.7697,2.61915 3.73406,2.61915 1.98206,0 3.66327,-1.69891 3.66327,-3.78715 0,-2.07055 -1.00873,-3.07927 -3.23855,-4.05261 -1.06182,-0.46012 -2.07055,-0.74327 -2.07055,-2.01745 0,-0.83176 0.74327,-1.61042 1.61042,-1.61042 0.53091,0 1.11491,0.24776 1.45115,0.83176 0.19467,0.35394 0.53091,0.5663 0.90255,0.5663 0.5663,0 1.02642,-0.47782 1.02642,-1.04412 0,-0.14158 -0.03539,-0.28315 -0.08848,-0.42473 -0.53091,-1.23879 -1.87588,-1.99976 -3.22085,-1.99976 -2.15903,0 -3.75176,1.59273 -3.75176,3.78715 0,1.87588 1.13261,2.99079 3.18545,3.73406 1.07952,0.38933 2.15903,0.88485 2.15903,2.22982 0,0.93794 -0.81406,1.752 -1.68121,1.752 -1.55733,0 -1.64582,-1.55733 -2.79612,-1.55733 -0.46012,0 -0.88485,0.42473 -0.88485,0.97333 z"
           data-paper-data="{&quot;glyphName&quot;:&quot;S&quot;,&quot;glyphIndex&quot;:0,&quot;firstGlyphOfWord&quot;:true,&quot;word&quot;:1}"
           id="path1871"
           style="fill:#ff0057;fill-opacity:1" />
        <path
           d="m 90.30512,284.51811 c -0.0177,0.0531 -0.03539,0.0708 -0.07079,0.0708 -0.0177,0 -0.05309,-0.0177 -0.07079,-0.0708 l -2.99079,-8.60073 c -0.21236,-0.70788 -0.83176,-1.25648 -1.53964,-1.25648 -1.06182,0 -1.68121,1.02642 -1.68121,2.336 v 10.08727 c 0,0.54861 0.49552,0.99103 1.06182,0.99103 0.584,0 1.02642,-0.46012 1.02642,-1.04412 v -7.55661 c 0,-0.44242 0.0177,-0.86715 0.03539,-1.29188 0.17697,0.42473 0.33624,0.88485 0.49552,1.34497 0.46012,1.38036 2.17673,6.47709 2.61915,7.75127 0.14158,0.44242 0.51321,0.79636 1.06182,0.79636 0.51321,0 0.88485,-0.37164 1.02642,-0.81406 0.0177,-0.0177 2.37139,-6.67176 2.88461,-8.176 0.15927,-0.47782 0.30085,-0.84945 0.31855,-0.84945 0.0177,0.42473 0.0177,0.84945 0.0177,1.29188 v 7.592 c 0,0.53091 0.44242,0.95564 0.97333,0.95564 0.584,0 1.07952,-0.46012 1.07952,-0.99103 V 276.9969 c 0,-1.34497 -0.42473,-2.336 -1.68121,-2.336 -1.02642,0 -1.50424,0.93794 -1.78739,1.84049 -0.93794,2.67224 -1.85818,5.34449 -2.77842,8.01673 z"
           data-paper-data="{&quot;glyphName&quot;:&quot;M&quot;,&quot;glyphIndex&quot;:1,&quot;word&quot;:1}"
           id="path1873"
           style="fill:#ff0057;fill-opacity:1" />
        <path
           d="m 107.10537,281.36805 c 0,3.75176 3.02618,6.77794 6.77794,6.77794 3.75176,0 6.77794,-3.02618 6.77794,-6.77794 0,-3.75176 -3.02618,-6.77794 -6.77794,-6.77794 -3.75176,0 -6.77794,3.02618 -6.77794,6.77794 z m 2.05285,0 c 0,-2.60145 2.12364,-4.70739 4.72509,-4.70739 2.60145,0 4.70739,2.10594 4.70739,4.70739 0,2.60145 -2.10594,4.72509 -4.70739,4.72509 -2.60145,0 -4.72509,-2.12364 -4.72509,-4.72509 z"
           data-paper-data="{&quot;glyphName&quot;:&quot;O&quot;,&quot;glyphIndex&quot;:2,&quot;word&quot;:1}"
           id="path1875"
           style="fill:#ff0057;fill-opacity:1" />
        <path
           d="m 130.80505,281.36805 c 0,3.75176 3.02618,6.77794 6.77794,6.77794 3.75176,0 6.77794,-3.02618 6.77794,-6.77794 0,-3.75176 -3.02618,-6.77794 -6.77794,-6.77794 -3.75176,0 -6.77794,3.02618 -6.77794,6.77794 z m 2.05285,0 c 0,-2.60145 2.12364,-4.70739 4.72509,-4.70739 2.60145,0 4.70739,2.10594 4.70739,4.70739 0,2.60145 -2.10594,4.72509 -4.70739,4.72509 -2.60145,0 -4.72509,-2.12364 -4.72509,-4.72509 z"
           data-paper-data="{&quot;glyphName&quot;:&quot;O&quot;,&quot;glyphIndex&quot;:3,&quot;word&quot;:1}"
           id="path1877"
           style="fill:#ff0057;fill-opacity:1" />
        <path
           d="m 160.33858,275.7935 c 0,-0.5663 -0.72558,-1.06182 -0.99103,-1.06182 h -6.45939 c -0.51321,0 -0.99103,0.6017 -0.99103,1.06182 0,0.51321 0.46012,1.00873 0.99103,1.00873 h 2.07055 c 0.0885,0 0.10618,0.0531 0.10618,0.10618 v 10.21115 c 0,0.5663 0.46012,0.95564 1.04412,0.95564 0.54861,0 1.02642,-0.40703 1.02642,-0.95564 V 276.9615 c 0,-0.17697 0.10618,-0.15927 0.12388,-0.15927 h 2.08824 c 0.51321,0 0.99103,-0.49552 0.99103,-1.00873 z"
           data-paper-data="{&quot;glyphName&quot;:&quot;T&quot;,&quot;glyphIndex&quot;:4,&quot;word&quot;:1}"
           id="path1879"
           style="fill:#ff0057;fill-opacity:1" />
        <path
           d="m 177.91591,288.0752 c 0.584,0 1.02642,-0.42473 1.02642,-0.99103 v -11.41455 c 0,-0.584 -0.44242,-1.00873 -1.02642,-1.00873 -0.5663,0 -1.02642,0.44242 -1.02642,1.00873 v 4.54812 c 0,0.0708 -0.0531,0.10618 -0.10618,0.10618 h -4.83127 c -0.0708,0 -0.10618,-0.0354 -0.10618,-0.10618 v -4.54812 c 0,-0.584 -0.44242,-1.00873 -1.02642,-1.00873 -0.5663,0 -1.02642,0.44242 -1.02642,1.00873 v 11.41455 c 0,0.5663 0.46012,0.99103 1.02642,0.99103 0.584,0 1.02642,-0.42473 1.02642,-0.99103 v -4.58352 c 0,-0.0531 0.0177,-0.10618 0.10618,-0.10618 h 4.83127 c 0.0708,0 0.10618,0.0354 0.10618,0.10618 v 4.58352 c 0,0.5663 0.46012,0.99103 1.02642,0.99103 z"
           data-paper-data="{&quot;glyphName&quot;:&quot;H&quot;,&quot;glyphIndex&quot;:5,&quot;lastGlyphOfWord&quot;:true,&quot;word&quot;:1}"
           id="path1881"
           style="fill:#ff0057;fill-opacity:1" />
        <path
           d="m 206.84803,288.14599 c 2.54836,0 3.94642,-1.20339 4.21188,-1.43345 0.26545,-0.23006 0.5663,-0.49552 0.5663,-0.99103 0,-0.5663 -0.46012,-1.02642 -1.02642,-1.02642 -0.33624,0 -0.49552,0.12388 -0.77867,0.35394 -0.81406,0.67248 -1.89358,1.02642 -2.97309,1.04412 -2.44218,-0.0708 -4.72509,-2.22982 -4.72509,-4.70739 0,-2.60145 2.03515,-4.672 4.70739,-4.72509 1.09721,0 2.17673,0.37164 2.99079,1.04412 0.28315,0.24776 0.44242,0.33624 0.77867,0.33624 0.5663,0 1.02642,-0.44242 1.02642,-1.02642 0,-0.46012 -0.30085,-0.76097 -0.54861,-0.97333 -0.26545,-0.23006 -1.68121,-1.45115 -4.22958,-1.45115 -3.75176,0 -6.79564,3.06158 -6.79564,6.79564 0,3.71636 3.06158,6.76024 6.79564,6.76024 z"
           data-paper-data="{&quot;glyphName&quot;:&quot;C&quot;,&quot;glyphIndex&quot;:6,&quot;firstGlyphOfWord&quot;:true,&quot;word&quot;:2}"
           id="path1883"
           style="fill:#ff0057;fill-opacity:1" />
        <path
           d="m 222.03136,281.36805 c 0,3.75176 3.02618,6.77794 6.77794,6.77794 3.75176,0 6.77794,-3.02618 6.77794,-6.77794 0,-3.75176 -3.02618,-6.77794 -6.77794,-6.77794 -3.75176,0 -6.77794,3.02618 -6.77794,6.77794 z m 2.05284,0 c 0,-2.60145 2.12364,-4.70739 4.72509,-4.70739 2.60145,0 4.70739,2.10594 4.70739,4.70739 0,2.60145 -2.10594,4.72509 -4.70739,4.72509 -2.60145,0 -4.72509,-2.12364 -4.72509,-4.72509 z"
           data-paper-data="{&quot;glyphName&quot;:&quot;O&quot;,&quot;glyphIndex&quot;:7,&quot;word&quot;:2}"
           id="path1885"
           style="fill:#ff0057;fill-opacity:1" />
        <path
           d="m 252.63048,284.51811 c -0.0177,0.0531 -0.0354,0.0708 -0.0708,0.0708 -0.0177,0 -0.0531,-0.0177 -0.0708,-0.0708 l -2.99079,-8.60073 c -0.21236,-0.70788 -0.83176,-1.25648 -1.53964,-1.25648 -1.06182,0 -1.68121,1.02642 -1.68121,2.336 v 10.08727 c 0,0.54861 0.49552,0.99103 1.06182,0.99103 0.584,0 1.02642,-0.46012 1.02642,-1.04412 v -7.55661 c 0,-0.44242 0.0177,-0.86715 0.0354,-1.29188 0.17697,0.42473 0.33624,0.88485 0.49552,1.34497 0.46012,1.38036 2.17673,6.47709 2.61915,7.75127 0.14158,0.44242 0.51321,0.79636 1.06182,0.79636 0.51321,0 0.88485,-0.37164 1.02642,-0.81406 0.0177,-0.0177 2.37139,-6.67176 2.88461,-8.176 0.15927,-0.47782 0.30085,-0.84945 0.31855,-0.84945 0.0177,0.42473 0.0177,0.84945 0.0177,1.29188 v 7.592 c 0,0.53091 0.44242,0.95564 0.97333,0.95564 0.584,0 1.07952,-0.46012 1.07952,-0.99103 V 276.9969 c 0,-1.34497 -0.42473,-2.336 -1.68121,-2.336 -1.02642,0 -1.50424,0.93794 -1.78739,1.84049 -0.93794,2.67224 -1.85818,5.34449 -2.77842,8.01673 z"
           data-paper-data="{&quot;glyphName&quot;:&quot;M&quot;,&quot;glyphIndex&quot;:8,&quot;word&quot;:2}"
           id="path1887"
           style="fill:#ff0057;fill-opacity:1" />
        <path
           d="m 269.70556,288.0752 c 0.584,0 1.04412,-0.46012 1.04412,-1.04412 v -4.14109 c 0,-0.0708 0.0354,-0.10618 0.10618,-0.10618 h 1.34497 c 2.26521,0 3.85794,-1.82279 3.85794,-4.0703 0,-2.24752 -1.59273,-3.98182 -3.85794,-3.98182 h -2.24752 c -0.77867,0 -1.25648,0.6017 -1.25648,1.36267 v 10.93673 c 0,0.5663 0.42473,1.04412 1.00873,1.04412 z m 1.04412,-11.14909 c 0,-0.0885 0.0531,-0.14158 0.14158,-0.14158 h 1.09721 c 1.59273,0 2.01745,1.168 2.01745,1.92897 0,0.77867 -0.42473,2.01745 -2.01745,2.01745 h -1.09721 c -0.10618,0 -0.14158,-0.0354 -0.14158,-0.10618 z"
           data-paper-data="{&quot;glyphName&quot;:&quot;P&quot;,&quot;glyphIndex&quot;:9,&quot;word&quot;:2}"
           id="path1889"
           style="fill:#ff0057;fill-opacity:1" />
        <path
           d="m 285.78792,281.36805 c 0,3.75176 3.02618,6.77794 6.77794,6.77794 3.75176,0 6.77794,-3.02618 6.77794,-6.77794 0,-3.75176 -3.02618,-6.77794 -6.77794,-6.77794 -3.75176,0 -6.77794,3.02618 -6.77794,6.77794 z m 2.05284,0 c 0,-2.60145 2.12364,-4.70739 4.72509,-4.70739 2.60145,0 4.70739,2.10594 4.70739,4.70739 0,2.60145 -2.10594,4.72509 -4.70739,4.72509 -2.60145,0 -4.72509,-2.12364 -4.72509,-4.72509 z"
           data-paper-data="{&quot;glyphName&quot;:&quot;O&quot;,&quot;glyphIndex&quot;:10,&quot;word&quot;:2}"
           id="path1891"
           style="fill:#ff0057;fill-opacity:1" />
        <path
           d="m 309.10085,285.52683 c 0,1.41576 1.7697,2.61915 3.73406,2.61915 1.98206,0 3.66327,-1.69891 3.66327,-3.78715 0,-2.07055 -1.00873,-3.07927 -3.23855,-4.05261 -1.06182,-0.46012 -2.07055,-0.74327 -2.07055,-2.01745 0,-0.83176 0.74327,-1.61042 1.61042,-1.61042 0.53091,0 1.11491,0.24776 1.45115,0.83176 0.19467,0.35394 0.53091,0.5663 0.90255,0.5663 0.5663,0 1.02642,-0.47782 1.02642,-1.04412 0,-0.14158 -0.0354,-0.28315 -0.0885,-0.42473 -0.53091,-1.23879 -1.87588,-1.99976 -3.22085,-1.99976 -2.15903,0 -3.75176,1.59273 -3.75176,3.78715 0,1.87588 1.13261,2.99079 3.18545,3.73406 1.07952,0.38933 2.15903,0.88485 2.15903,2.22982 0,0.93794 -0.81406,1.752 -1.68121,1.752 -1.55733,0 -1.64582,-1.55733 -2.79612,-1.55733 -0.46012,0 -0.88485,0.42473 -0.88485,0.97333 z"
           data-paper-data="{&quot;glyphName&quot;:&quot;S&quot;,&quot;glyphIndex&quot;:11,&quot;word&quot;:2}"
           id="path1893"
           style="fill:#ff0057;fill-opacity:1" />
        <path
           d="m 332.42009,286.97799 c 0,-0.5663 -0.47782,-1.02642 -1.00873,-1.02642 h -3.75176 c -0.0885,0 -0.10618,-0.0531 -0.10618,-0.10618 v -3.38012 c 0,-0.0531 0.0354,-0.0885 0.10618,-0.0885 h 3.75176 c 0.5663,0 1.00873,-0.46012 1.00873,-1.04412 0,-0.5663 -0.47782,-1.02642 -1.00873,-1.02642 h -3.75176 c -0.0708,0 -0.10618,-0.0177 -0.10618,-0.0885 v -3.32703 c 0,-0.0531 0.0354,-0.0885 0.10618,-0.0885 h 3.75176 c 0.584,0 0.93794,-0.42473 0.93794,-0.93794 0,-0.76097 -0.44242,-1.13261 -0.93794,-1.13261 h -4.91976 c -0.77867,0 -1.00873,0.67248 -1.00873,1.45115 v 10.42352 c 0,0.72558 0.21236,1.39806 1.02642,1.39806 h 4.72509 c 0.63709,0 1.1857,-0.35394 1.1857,-1.02642 z"
           data-paper-data="{&quot;glyphName&quot;:&quot;E&quot;,&quot;glyphIndex&quot;:12,&quot;lastGlyphOfWord&quot;:true,&quot;word&quot;:2}"
           id="path1895"
           style="fill:#ff0057;fill-opacity:1" />
        <path
           d="m 359.98387,288.14599 c 2.54836,0 3.94642,-1.20339 4.21188,-1.43345 0.26545,-0.23006 0.5663,-0.49552 0.5663,-0.99103 0,-0.5663 -0.46012,-1.02642 -1.02642,-1.02642 -0.33624,0 -0.49552,0.12388 -0.77867,0.35394 -0.81406,0.67248 -1.89358,1.02642 -2.97309,1.04412 -2.44218,-0.0708 -4.72509,-2.22982 -4.72509,-4.70739 0,-2.60145 2.03515,-4.672 4.70739,-4.72509 1.09721,0 2.17673,0.37164 2.99079,1.04412 0.28315,0.24776 0.44242,0.33624 0.77867,0.33624 0.5663,0 1.02642,-0.44242 1.02642,-1.02642 0,-0.46012 -0.30085,-0.76097 -0.54861,-0.97333 -0.26545,-0.23006 -1.68121,-1.45115 -4.22958,-1.45115 -3.75176,0 -6.79564,3.06158 -6.79564,6.79564 0,3.71636 3.06158,6.76024 6.79564,6.76024 z"
           data-paper-data="{&quot;glyphName&quot;:&quot;C&quot;,&quot;glyphIndex&quot;:13,&quot;firstGlyphOfWord&quot;:true,&quot;word&quot;:3}"
           id="path1897"
           style="fill:#ff0057;fill-opacity:1" />
        <path
           d="m 375.16719,281.36805 c 0,3.75176 3.02618,6.77794 6.77794,6.77794 3.75176,0 6.77794,-3.02618 6.77794,-6.77794 0,-3.75176 -3.02618,-6.77794 -6.77794,-6.77794 -3.75176,0 -6.77794,3.02618 -6.77794,6.77794 z m 2.05285,0 c 0,-2.60145 2.12364,-4.70739 4.72509,-4.70739 2.60145,0 4.70739,2.10594 4.70739,4.70739 0,2.60145 -2.10594,4.72509 -4.70739,4.72509 -2.60145,0 -4.72509,-2.12364 -4.72509,-4.72509 z"
           data-paper-data="{&quot;glyphName&quot;:&quot;O&quot;,&quot;glyphIndex&quot;:14,&quot;word&quot;:3}"
           id="path1899"
           style="fill:#ff0057;fill-opacity:1" />
        <path
           d="m 403.37225,288.00441 c 3.68097,0 6.63636,-2.97309 6.63636,-6.63636 0,-3.62788 -2.95539,-6.63636 -6.63636,-6.63636 h -3.09697 c -0.63709,0 -1.11491,0.46012 -1.11491,1.11491 v 11.14909 c 0,0.5663 0.51321,1.00873 1.07952,1.00873 z m 0.0354,-11.20218 c 2.60145,0 4.54812,1.98206 4.54812,4.56582 0,2.56606 -1.99976,4.58352 -4.58352,4.58352 h -2.03515 c -0.0885,0 -0.10618,-0.0354 -0.10618,-0.10618 v -8.95467 c 0,-0.0531 0.0354,-0.0885 0.10618,-0.0885 z"
           data-paper-data="{&quot;glyphName&quot;:&quot;D&quot;,&quot;glyphIndex&quot;:15,&quot;word&quot;:3}"
           id="path1901"
           style="fill:#ff0057;fill-opacity:1" />
        <path
           d="m 419.81294,288.0752 c 0.584,0 1.02642,-0.44242 1.02642,-0.99103 v -11.41455 c 0,-0.584 -0.44242,-1.00873 -1.02642,-1.00873 -0.5663,0 -1.02642,0.47782 -1.02642,1.00873 v 11.41455 c 0,0.5663 0.46012,0.99103 1.02642,0.99103 z"
           data-paper-data="{&quot;glyphName&quot;:&quot;I&quot;,&quot;glyphIndex&quot;:16,&quot;word&quot;:3}"
           id="path1903"
           style="fill:#ff0057;fill-opacity:1" />
        <path
           d="m 430.96666,274.66089 c -0.79636,0 -1.38036,0.63709 -1.38036,1.43345 v 10.98982 c 0,0.5663 0.46012,0.99103 1.04412,0.99103 0.584,0 1.00873,-0.40703 1.00873,-0.99103 v -8.51224 c 0,-0.0885 0.0531,-0.14158 0.12388,-0.14158 0.0354,0 0.0708,0.0177 0.10618,0.0885 l 5.2737,8.7423 c 0.23006,0.38933 0.67248,0.81406 1.36267,0.81406 0.88485,0 1.39806,-0.72558 1.39806,-1.41576 V 275.6696 c 0,-0.584 -0.46012,-1.00873 -1.04412,-1.00873 -0.584,0 -1.02642,0.42473 -1.02642,0.99103 v 8.56533 c 0,0.0885 -0.0354,0.14158 -0.10618,0.14158 -0.0354,0 -0.0708,-0.0354 -0.10618,-0.10618 l -5.29139,-8.7777 c -0.23006,-0.37164 -0.69018,-0.79636 -1.36267,-0.81406 z"
           data-paper-data="{&quot;glyphName&quot;:&quot;N&quot;,&quot;glyphIndex&quot;:17,&quot;word&quot;:3}"
           id="path1905"
           style="fill:#ff0057;fill-opacity:1" />
        <path
           d="m 462.04316,282.25289 c 0,-0.83176 -0.54861,-1.02642 -1.46885,-1.02642 h -3.64558 c -0.5663,0 -0.99103,0.44242 -0.99103,1.02642 0,0.5663 0.42473,1.02642 0.99103,1.02642 h 2.97309 c 0.0354,0 0.0531,0.0177 0.0708,0.0354 v 1.43345 c 0,0.61939 -1.46885,1.34497 -3.27394,1.34497 -2.60145,0 -4.72509,-2.12364 -4.72509,-4.72509 0,-2.60145 2.12364,-4.70739 4.72509,-4.70739 1.13261,0 2.21212,0.38933 3.04388,1.11491 0.19467,0.17697 0.37164,0.28315 0.77867,0.28315 0.49552,0 0.97333,-0.47782 0.97333,-1.04412 0,-0.40703 -0.26545,-0.69018 -0.47782,-0.86715 -0.72558,-0.61939 -2.19442,-1.55733 -4.31806,-1.55733 -3.75176,0 -6.77794,3.02618 -6.77794,6.77794 0,3.75176 3.02618,6.77794 6.77794,6.77794 2.3183,0 4.12339,-1.04412 4.83127,-1.78739 0.37164,-0.38933 0.51321,-0.76097 0.51321,-1.1857 z"
           data-paper-data="{&quot;glyphName&quot;:&quot;G&quot;,&quot;glyphIndex&quot;:18,&quot;lastGlyphOfWord&quot;:true,&quot;word&quot;:3}"
           id="path1907"
           style="fill:#ff0057;fill-opacity:1" />
      </g>
      <g
         data-paper-data="{&quot;isPrimaryText&quot;:true}"
         id="g1929"
         style="fill:#ff0057;fill-opacity:1">
        <path
           d="m 91.03197,181.85401 c -2.96634,0 -5.49322,2.41702 -5.49322,5.49322 v 47.13185 c 0,7.36092 -5.93268,13.2936 -13.2936,13.2936 -3.0762,0 -5.49322,2.41702 -5.49322,5.49322 0,3.0762 2.41702,5.49322 5.49322,5.49322 6.482,0 12.63441,-2.52688 17.24872,-7.14119 4.50444,-4.61431 7.03133,-10.65685 7.03133,-17.13886 v -47.13185 c 0,-3.0762 -2.41702,-5.49322 -5.49322,-5.49322 z"
           data-paper-data="{&quot;glyphName&quot;:&quot;J&quot;,&quot;glyphIndex&quot;:0,&quot;firstGlyphOfWord&quot;:true,&quot;word&quot;:1}"
           fill-rule="nonzero"
           id="path1911"
           style="fill:#ff0057;fill-opacity:1" />
        <path
           d="m 115.20215,181.85401 c -3.0762,0 -5.49322,2.41702 -5.49322,5.49322 v 65.91867 c 0,3.0762 2.41702,5.49322 5.49322,5.49322 h 37.68351 c 2.96634,0 5.49322,-2.41702 5.49322,-5.49322 0,-3.0762 -2.52688,-5.49322 -5.49322,-5.49322 h -32.19029 v -21.97289 h 32.19029 c 2.96634,0 5.49322,-2.41702 5.49322,-5.49322 0,-3.0762 -2.52688,-5.49322 -5.49322,-5.49322 h -32.19029 v -21.97289 h 32.19029 c 2.96634,0 5.49322,-2.41702 5.49322,-5.49322 0,-3.0762 -2.52688,-5.49322 -5.49322,-5.49322 z"
           data-paper-data="{&quot;glyphName&quot;:&quot;E&quot;,&quot;glyphIndex&quot;:1,&quot;word&quot;:1}"
           fill-rule="nonzero"
           id="path1913"
           style="fill:#ff0057;fill-opacity:1" />
        <path
           d="m 174.85855,181.85401 c -3.0762,0 -5.49322,2.41702 -5.49322,5.49322 v 65.91867 c 0,3.0762 2.41702,5.49322 5.49322,5.49322 3.0762,0 5.49322,-2.41702 5.49322,-5.49322 v -22.74194 h 15.05143 l 17.24872,25.81815 c 1.8677,2.74661 5.38336,2.96634 7.58065,1.5381 2.52688,-1.75783 3.29593,-5.16363 1.5381,-7.69051 l -14.28238,-21.42357 c 2.96634,-1.20851 5.71295,-3.0762 8.12997,-5.38336 4.61431,-4.61431 7.14119,-10.65685 7.14119,-17.24872 0,-6.482 -2.52688,-12.52455 -7.14119,-17.13886 -4.61431,-4.61431 -10.76672,-7.14119 -17.24872,-7.14119 z m 5.49322,10.98645 h 18.01777 c 7.36092,0 13.40346,6.04255 13.40346,13.2936 0,7.36092 -6.04255,13.40346 -13.40346,13.40346 h -18.01777 z"
           data-paper-data="{&quot;glyphName&quot;:&quot;R&quot;,&quot;glyphIndex&quot;:2,&quot;word&quot;:1}"
           fill-rule="nonzero"
           id="path1915"
           style="fill:#ff0057;fill-opacity:1" />
        <path
           d="m 391.40139,181.85401 c -2.96634,0 -5.49322,2.41702 -5.49322,5.49322 0,8.56943 -3.29593,16.6994 -9.33848,22.74194 -5.93268,5.93268 -13.73306,9.22861 -21.97289,9.44834 v -32.19029 c 0,-3.0762 -2.52688,-5.49322 -5.49322,-5.49322 -3.0762,0 -5.49322,2.41702 -5.49322,5.49322 v 65.91867 c 0,3.0762 2.41702,5.49322 5.49322,5.49322 2.96634,0 5.49322,-2.41702 5.49322,-5.49322 v -22.74194 c 8.45956,-0.21973 15.16129,-2.63675 20.76438,-5.82282 2.85648,2.52688 5.16363,5.60309 6.92146,8.89902 2.41702,4.61431 3.62553,9.66807 3.62553,14.94157 v 4.72417 c 0,3.0762 2.52688,5.49322 5.49322,5.49322 3.0762,0 5.49322,-2.41702 5.49322,-5.49322 v -4.72417 c 0,-6.92146 -1.64797,-13.84292 -4.83404,-19.99533 -2.08742,-3.84526 -4.72417,-7.47078 -7.80038,-10.54699 v -0.10986 c 3.95512,-3.95512 7.14119,-8.56943 9.22861,-13.73306 2.30715,-5.27349 3.4058,-10.98645 3.4058,-16.80926 0,-3.0762 -2.41702,-5.49322 -5.49322,-5.49322 z"
           data-paper-data="{&quot;glyphName&quot;:&quot;K&quot;,&quot;glyphIndex&quot;:4,&quot;firstGlyphOfWord&quot;:true,&quot;word&quot;:2}"
           fill-rule="nonzero"
           id="path1917"
           style="fill:#ff0057;fill-opacity:1" />
        <path
           d="m 415.57157,181.85401 c -3.0762,0 -5.49322,2.41702 -5.49322,5.49322 v 65.91867 c 0,3.0762 2.41702,5.49322 5.49322,5.49322 3.0762,0 5.49322,-2.41702 5.49322,-5.49322 v -65.91867 c 0,-3.0762 -2.41702,-5.49322 -5.49322,-5.49322 z"
           data-paper-data="{&quot;glyphName&quot;:&quot;I&quot;,&quot;glyphIndex&quot;:5,&quot;word&quot;:2}"
           fill-rule="nonzero"
           id="path1919"
           style="fill:#ff0057;fill-opacity:1" />
        <path
           d="m 435.34717,181.85401 c -3.0762,0 -5.49322,2.41702 -5.49322,5.49322 0,3.0762 2.41702,5.49322 5.49322,5.49322 h 15.71062 v 60.42545 c 0,3.0762 2.41702,5.49322 5.49322,5.49322 2.96634,0 5.49322,-2.41702 5.49322,-5.49322 v -60.42545 h 15.71062 c 2.96634,0 5.49322,-2.41702 5.49322,-5.49322 0,-3.0762 -2.52688,-5.49322 -5.49322,-5.49322 z"
           data-paper-data="{&quot;glyphName&quot;:&quot;T&quot;,&quot;glyphIndex&quot;:6,&quot;lastGlyphOfWord&quot;:true,&quot;word&quot;:2}"
           fill-rule="nonzero"
           id="path1921"
           style="fill:#ff0057;fill-opacity:1" />
        <g
           data-paper-data="{&quot;fillRule&quot;:&quot;evenodd&quot;,&quot;fillRuleOriginal&quot;:&quot;evenodd&quot;,&quot;isIcon&quot;:true,&quot;iconStyle&quot;:&quot;icon-in-text&quot;,&quot;selectedEffects&quot;:{&quot;container&quot;:&quot;&quot;,&quot;transformation&quot;:&quot;&quot;,&quot;pattern&quot;:&quot;&quot;},&quot;bounds&quot;:{&quot;x&quot;:229.35131868141744,&quot;y&quot;:181.8540137132976,&quot;width&quot;:76.90511894827401,&quot;height&quot;:76.90511894827387},&quot;iconType&quot;:&quot;icon&quot;,&quot;rawIconId&quot;:&quot;2869688&quot;,&quot;isDetailed&quot;:false,&quot;suitableAsStandaloneIcon&quot;:true}"
           id="g1927"
           style="fill:#ff0057;fill-opacity:1">
          <path
             d="m 267.80388,181.85401 c -5.16363,0 -10.21739,0.98878 -14.94157,3.0762 -4.61431,1.8677 -8.67929,4.61431 -12.30482,8.23983 -3.51566,3.51566 -6.26227,7.58065 -8.12997,12.19495 -2.08742,4.72417 -3.0762,9.77794 -3.0762,14.94157 0,5.16363 0.98878,10.21739 3.0762,14.94157 1.8677,4.61431 4.61431,8.67929 8.12997,12.30482 3.62553,3.51566 7.69051,6.26227 12.30482,8.12997 4.72417,2.08742 9.77794,3.0762 14.94157,3.0762 5.16363,0 10.21739,-0.98878 14.94157,-3.0762 4.61431,-1.8677 8.67929,-4.61431 12.19495,-8.12997 3.62553,-3.62553 6.37214,-7.69051 8.23983,-12.30482 2.08742,-4.72417 3.0762,-9.77794 3.0762,-14.94157 0,-5.16363 -0.98878,-10.21739 -3.0762,-14.94157 -1.8677,-4.61431 -4.61431,-8.67929 -8.23983,-12.19495 -3.51566,-3.62553 -7.58065,-6.37214 -12.19495,-8.23983 -4.72417,-2.08742 -9.77794,-3.0762 -14.94157,-3.0762 z m 0,10.98645 c 7.36092,0 14.17251,2.85648 19.44601,8.02011 5.16363,5.27349 8.02011,12.08509 8.02011,19.44601 0,7.36092 -2.85648,14.28238 -8.02011,19.44601 -5.27349,5.16363 -12.08509,8.02011 -19.44601,8.02011 -7.36092,0 -14.28238,-2.85648 -19.44601,-8.02011 -5.16363,-5.16363 -8.02011,-12.08509 -8.02011,-19.44601 0,-7.36092 2.85648,-14.17251 8.02011,-19.44601 5.16363,-5.16363 12.08509,-8.02011 19.44601,-8.02011 z"
             data-paper-data="{&quot;glyphName&quot;:&quot;O&quot;,&quot;glyphIndex&quot;:3,&quot;lastGlyphOfWord&quot;:true,&quot;word&quot;:1}"
             fill-rule="nonzero"
             id="path1923"
             style="fill:#ff0057;fill-opacity:1" />
          <path
             d="m 267.804,244.55491 c -13.37574,0 -24.24841,-10.87267 -24.24841,-24.24841 0,-13.37574 10.87267,-24.24841 24.24841,-24.24841 13.37574,0 24.24841,10.87267 24.24841,24.24841 0,13.37574 -10.87267,24.24841 -24.24841,24.24841 z m 0,-47.51906 c -12.82819,0 -23.27065,10.44246 -23.27065,23.27065 0,12.82819 10.44246,23.27065 23.27065,23.27065 12.82819,0 23.27065,-10.44246 23.27065,-23.27065 0,-12.82819 -10.44246,-23.27065 -23.27065,-23.27065 z m 14.7446,12.74997 -0.005,0.009 c 0.30506,-0.2724 0.70555,-0.43948 1.13928,-0.43948 0.93865,0 1.72085,0.78221 1.72085,1.72085 0,0.76226 -0.51587,1.42135 -1.21242,1.64213 v 15.13672 c 0.69655,0.22078 1.21242,0.87987 1.21242,1.64213 0,0.93865 -0.78221,1.72085 -1.72085,1.72085 -0.43295,0 -0.83266,-0.16641 -1.13772,-0.4378 l -13.05656,7.63841 c 0.0238,0.11264 0.0363,0.2288 0.0363,0.34769 0,0.97776 -0.78221,1.72085 -1.72085,1.72085 -0.93865,0 -1.72085,-0.78221 -1.72085,-1.72085 0,-0.1318 0.0154,-0.26087 0.0446,-0.38485 l -12.95104,-7.67188 0.0156,-0.0572 c -0.3164,0.34609 -0.76981,0.56565 -1.26714,0.56565 -0.93865,0 -1.72085,-0.78221 -1.72085,-1.72085 0,-0.77646 0.53526,-1.44587 1.25153,-1.65402 v -15.19116 c -0.71627,-0.20815 -1.25153,-0.87756 -1.25153,-1.65402 0,-0.93865 0.78221,-1.72085 1.72085,-1.72085 0.48164,0 0.9221,0.20595 1.23683,0.53331 l 12.9801,-7.56194 c -0.0384,-0.14127 -0.059,-0.2893 -0.059,-0.44144 0,-0.93865 0.78221,-1.72085 1.72085,-1.72085 0.93865,0 1.72085,0.78221 1.72085,1.72085 0,0.1521 -0.0205,0.30009 -0.0589,0.44132 z m -0.5276,1.73192 -6.56655,3.77384 -7.14202,-4.15407 v -7.68807 c 0.25074,-0.0795 0.47805,-0.21573 0.66632,-0.39318 l -10e-4,0.003 13.03469,7.61013 c -0.0329,0.13094 -0.0501,0.26747 -0.0501,0.40749 0,0.1521 0.0207,0.30009 0.0591,0.44128 z m -14.68632,-8.05641 c -0.23846,-0.0693 -0.45689,-0.18972 -0.64215,-0.3482 l -13.08831,7.51224 c 0.0274,0.12034 0.0419,0.24518 0.0419,0.37288 0,0.12472 -0.0138,0.24671 -0.04,0.36443 l 6.57629,3.89574 7.1523,-4.14464 z m -7.39186,12.7777 0.50617,-0.81764 7.35501,4.33757 7.4389,-4.3267 0.45313,0.83074 -7.42271,4.31727 v 8.79983 h -0.93865 v -8.79983 l -7.66563,-4.49769 v 8.95627 l 7.66563,4.45858 v 7.61517 c -0.26098,0.0759 -0.49791,0.21276 -0.6937,0.39423 l -13.05683,-7.55741 c 0.0403,-0.14444 0.0619,-0.29607 0.0619,-0.452 0,-0.76226 -0.51587,-1.42135 -1.21242,-1.64213 v -15.21494 c 0.26771,-0.0848 0.50871,-0.23443 0.70399,-0.42971 z m 8.36961,13.23564 v 7.64967 c 0.262,0.0833 0.49842,0.22801 0.69147,0.41731 l 13.01709,-7.60278 c -0.0383,-0.14127 -0.0591,-0.2893 -0.0591,-0.44144 0,-0.77646 0.53542,-1.44587 1.25153,-1.65402 v -15.11294 c -0.2507,-0.0729 -0.47949,-0.20232 -0.67074,-0.37307 l 0.006,0.01 -6.60965,3.77693 v 8.89483 z"
             data-paper-data="{&quot;isPathIcon&quot;:true}"
             fill-rule="evenodd"
             id="path1925"
             style="fill:#ff0057;fill-opacity:1" />
        </g>
      </g>
    </g>
  </g>
</svg>
